<?xml version="1.0" encoding="UTF-8" standalone="no"?>
<svg
   xmlns:dc="http://purl.org/dc/elements/1.1/"
   xmlns:cc="http://creativecommons.org/ns#"
   xmlns:rdf="http://www.w3.org/1999/02/22-rdf-syntax-ns#"
   xmlns:svg="http://www.w3.org/2000/svg"
   xmlns="http://www.w3.org/2000/svg"
   xmlns:sodipodi="http://sodipodi.sourceforge.net/DTD/sodipodi-0.dtd"
   xmlns:inkscape="http://www.inkscape.org/namespaces/inkscape"
   sodipodi:docname="eggseed.svg"
   inkscape:version="1.0 (4035a4f, 2020-05-01)"
   id="svg8"
   version="1.1"
   viewBox="0 0 135.4666 177.65814"
   height="177.65814mm"
   width="135.4666mm">
  <defs
     id="defs2" />
  <sodipodi:namedview
     inkscape:window-maximized="0"
     inkscape:window-y="23"
     inkscape:window-x="0"
     inkscape:window-height="682"
     inkscape:window-width="1252"
     showgrid="false"
     inkscape:document-rotation="0"
     inkscape:current-layer="091---Seed"
     inkscape:document-units="mm"
     inkscape:cy="420.7645"
     inkscape:cx="-276.85728"
     inkscape:zoom="0.35"
     inkscape:pageshadow="2"
     inkscape:pageopacity="0.0"
     borderopacity="1.0"
     bordercolor="#666666"
     pagecolor="#ffffff"
     id="base" />
  <metadata
     id="metadata5">
    <rdf:RDF>
      <cc:Work
         rdf:about="">
        <dc:format>image/svg+xml</dc:format>
        <dc:type
           rdf:resource="http://purl.org/dc/dcmitype/StillImage" />
        <dc:title></dc:title>
      </cc:Work>
    </rdf:RDF>
  </metadata>
  <g
     transform="translate(-44.903607,-36.839393)"
     id="layer1"
     inkscape:groupmode="layer"
     inkscape:label="Layer 1">
    <g
       transform="matrix(0.26456576,0,0,0.26456576,44.903658,87.236906)"
       id="g24">
      <path
         d="m 507.629,326.627 c -13.14,13.13 -28.46,24.69 -45.35,34.3 1.25,0.06 2.49,0.09 3.74,0.09 14.79,0 20.63,19.27 8.32,27.48 -11.07,5.57 -41.7,37.03 -95.52,32.26 -0.57,11.02 -2.62,21.87 -6.14,32.43 -3.53,10.59 -16.98,13.72 -24.84,5.86 -12.28,-12.28 -28.15,-20.22 -45.4,-22.86 -14.71,24.69 -36.42,41.08 -37.45,41.85 -2.66,1.98 -5.81,2.98 -8.97,2.98 -3.16,0 -6.31,-1 -8.97,-2.98 -1.03,-0.77 -22.74,-17.16 -37.45,-41.85 -17.25,2.64 -33.12,10.58 -45.4,22.86 -7.88,7.88 -21.32,4.7 -24.84,-5.86 -3.52,-10.56 -5.57,-21.41 -6.14,-32.43 -53.72,4.77 -84.76,-26.84 -95.52,-32.26 -12.31,-8.2 -6.48,-27.48 8.32,-27.48 1.25,0 2.49,-0.03 3.74,-0.09 -16.89,-9.61 -32.21,-21.17 -45.35,-34.3 -9.44,-9.44 -2.71,-25.61 10.61,-25.61 19.71,0 39.38,-7.06 53.96,-19.37 0.05,-0.05 93.54,-0.07 187.04,-0.07 93.5,0 186.99,0.02 187.04,0.07 14.58,12.31 34.25,19.37 53.96,19.37 13.34,0 20.03,16.18 10.61,25.61 z"
         fill="#ffb64c"
         id="path10" />
      <path
         d="m 507.629,326.627 c -13.14,13.13 -28.46,24.69 -45.35,34.3 1.25,0.06 2.49,0.09 3.74,0.09 14.79,0 20.63,19.27 8.32,27.48 -11.07,5.57 -41.7,37.03 -95.52,32.26 -0.57,11.02 -2.62,21.87 -6.14,32.43 -3.53,10.59 -16.98,13.72 -24.84,5.86 -12.28,-12.28 -28.15,-20.22 -45.4,-22.86 -14.71,24.69 -36.42,41.08 -37.45,41.85 -2.66,1.98 -5.81,2.98 -8.97,2.98 v -199.44 c 93.5,0 186.99,0.02 187.04,0.07 14.58,12.31 34.25,19.37 53.96,19.37 13.34,0 20.03,16.18 10.61,25.61 z"
         fill="#ff9100"
         id="path12" />
      <path
         d="m 361.019,31.017 c -28.57,0 -56.696,17.614 -79.198,49.597 -0.071,0.1 36.514,245.687 53.257,248.394 8.247,1.333 16.976,2.01 25.941,2.01 70.869,0 120,-41.364 120,-120 0,-74.954 -47.599,-180.001 -120,-180.001 z"
         fill="#ffca80"
         id="path14" />
      <path
         d="M 230.217,80.614 C 207.715,48.631 179.589,31.017 151.019,31.017 c -72.881,0 -120,105.868 -120,180 0,78.531 49.022,120 120,120 8.966,0 17.694,-0.676 25.941,-2.01 15.242,-2.463 53.328,-248.292 53.257,-248.393 z"
         fill="#ffe6b3"
         id="path16" />
      <g
         id="g20">
        <path
           d="m 256.019,61.017 c -72.4,0 -120,105.05 -120,180 0,78.64 49.13,120 120,120 70.98,0 120,-41.47 120,-120 0,-74.13 -47.12,-180 -120,-180 z"
           fill="#fff7cc"
           id="path18" />
      </g>
      <path
         d="m 376.019,241.017 c 0,78.53 -49.02,120 -120,120 v -300 c 72.88,0 120,105.87 120,180 z"
         fill="#ffe6b3"
         id="path22" />
    </g>
    <g
       transform="matrix(2.3356322,0,0,2.3356322,68.40845,-6.501822)"
       style="fill:none"
       fill-rule="nonzero"
       id="091---Seed">
      <g
         transform="rotate(-30,13.979721,47.883583)"
         id="g167">
        <path
           id="path46"
           d="m 36.4704,47.16761 c -1.52,3.21 -5.46,5.18 -10.13,3.58 -0.911823,-0.333348 -1.781158,-0.77305 -2.59,-1.31 -0.85319,-0.721307 -1.833224,-1.27745 -2.89,-1.64 -1.050416,-0.186339 -2.132966,-0.02114 -3.08,0.47 -0.97936,0.499565 -1.895801,1.113883 -2.73,1.83 -0.94993,-0.180305 -1.913303,-0.280657 -2.88,-0.3 0.741981,-1.516002 1.030203,-3.214078 0.83,-4.89 3.32,-3.79 8.07,-5 12.17,-3.06 0.696805,0.316766 1.365816,0.691412 2,1.12 1.13,0.68 3.25,1.5 3.66,0.68 0.138864,-0.732861 0.07666,-1.489648 -0.18,-2.19 -0.541882,-1.574952 -1.210746,-3.103307 -2,-4.57 l 2,-1.54 c 4.87,1.92 7.98,7.25 5.82,11.82 z"
           fill="#14a085" />
        <path
           id="path50"
           d="m 26.5004,21.62761 c 4.17,4.06 4.28,11.06 4.13,13.87 -0.04006,0.704535 -0.605179,1.265343 -1.31,1.3 -2.8,0.23 -9.8,0.32 -14,-3.74 -4.2,-4.06 -4.26,-11.02 -4.15,-13.83 0.01481,-0.718496 0.582282,-1.303433 1.3,-1.34 2.84,-0.23 9.85,-0.32 14.03,3.74 z"
           fill="#26b99a" />
        <path
           id="path52"
           d="m 30.1004,37.54761 c -0.4536,0.02077 -0.864253,-0.266691 -1,-0.7 -0.41,-1.29 -2.95,-8 -12.46,-13.17 -0.314394,-0.178632 -0.509606,-0.511423 -0.512102,-0.873012 -0.0025,-0.36159 0.188102,-0.697044 0.5,-0.88 0.311897,-0.182957 0.697708,-0.18562 1.012102,-0.007 10.18,5.56 13,12.91 13.4,14.33 0.163463,0.524475 -0.126766,1.082608 -0.65,1.25 -0.09268,0.03468 -0.191055,0.05164 -0.29,0.05 z"
           fill="#14a085" />
      </g>
    </g>
  </g>
</svg>
