<?xml version="1.0" encoding="UTF-8" standalone="no"?>
<svg
   xmlns:dc="http://purl.org/dc/elements/1.1/"
   xmlns:cc="http://creativecommons.org/ns#"
   xmlns:rdf="http://www.w3.org/1999/02/22-rdf-syntax-ns#"
   xmlns:svg="http://www.w3.org/2000/svg"
   xmlns="http://www.w3.org/2000/svg"
   xmlns:sodipodi="http://sodipodi.sourceforge.net/DTD/sodipodi-0.dtd"
   xmlns:inkscape="http://www.inkscape.org/namespaces/inkscape"
   sodipodi:docname="word.svg"
   inkscape:version="1.0 (4035a4f, 2020-05-01)"
   id="svg8"
   version="1.1"
   viewBox="0 0 159.71738 44.871677"
   height="44.871677mm"
   width="159.71738mm">
  <defs
     id="defs2" />
  <sodipodi:namedview
     inkscape:window-maximized="0"
     inkscape:window-y="23"
     inkscape:window-x="0"
     inkscape:window-height="682"
     inkscape:window-width="1252"
     showgrid="false"
     inkscape:document-rotation="0"
     inkscape:current-layer="layer1"
     inkscape:document-units="mm"
     inkscape:cy="155.1875"
     inkscape:cx="309.6875"
     inkscape:zoom="0.35"
     inkscape:pageshadow="2"
     inkscape:pageopacity="0.0"
     borderopacity="1.0"
     bordercolor="#666666"
     pagecolor="#ffffff"
     id="base" />
  <metadata
     id="metadata5">
    <rdf:RDF>
      <cc:Work
         rdf:about="">
        <dc:format>image/svg+xml</dc:format>
        <dc:type
           rdf:resource="http://purl.org/dc/dcmitype/StillImage" />
        <dc:title></dc:title>
      </cc:Work>
    </rdf:RDF>
  </metadata>
  <g
     transform="translate(-23.895182,-107.10664)"
     id="layer1"
     inkscape:groupmode="layer"
     inkscape:label="Layer 1">
    <g
       style="font-style:normal;font-weight:normal;font-size:50.8px;line-height:1.25;font-family:sans-serif;fill:#ff9100;fill-opacity:1;stroke:none;stroke-width:0.264583"
       id="text12"
       aria-label="EggSeed">
      <path
         id="path86"
         style="font-style:normal;font-variant:normal;font-weight:normal;font-stretch:normal;font-size:50.8px;font-family:Niconne;-inkscape-font-specification:Niconne;fill:#ff9100;fill-opacity:1;stroke-width:0.264583"
         d="m 46.095377,119.85625 q 1.314648,0 1.314648,0.89297 0,0.89297 -1.364258,0.89297 -3.571875,0 -6.746875,1.11621 -3.150195,1.11621 -5.233789,2.85254 -2.083593,1.73633 -3.274218,3.81992 -1.190625,2.08359 -1.190625,4.09277 0,3.22461 2.703711,5.33301 2.70371,2.08359 8.061523,2.08359 6.126758,0 9.177734,-2.92695 1.5875,-1.53789 1.5875,-3.96875 0,-2.45566 -1.612305,-3.86953 -1.612304,-1.41387 -4.142382,-1.41387 -2.505274,0 -4.985742,0.99219 -2.455664,0.99219 -3.894336,2.6541 l -1.364258,-1.21543 q 1.438672,-1.83554 4.266406,-2.95176 2.827734,-1.11621 5.159375,-1.11621 2.331641,0 3.745508,0.42168 1.438672,0.42168 2.604492,1.24024 2.505273,1.78594 2.654101,5.50664 -0.09922,2.23242 -1.339453,4.01836 -1.240234,1.78594 -3.274218,2.90215 -4.117578,2.28203 -9.698633,2.28203 -5.97793,0 -10.541992,-2.77813 -2.182813,-1.33945 -3.497461,-3.47265 -1.314648,-2.15801 -1.314648,-4.78731 0,-9.32656 16.321484,-11.98066 -2.753321,-0.94258 -3.96875,-2.50528 -1.21543,-1.56269 -1.21543,-3.24941 0,-3.02617 3.323828,-5.3082 3.348633,-2.30684 8.408789,-2.30684 4.638477,0 7.739063,2.48047 2.306835,1.83555 2.406054,4.83691 0,1.38907 -0.818554,2.1084 -0.818555,0.69453 -1.959571,0.69453 -1.141015,0 -1.95957,-0.62011 -0.79375,-0.64493 -0.79375,-1.48828 0,-0.84336 0.297656,-1.31465 0.297656,-0.4961 0.644922,-0.71934 0.37207,-0.24805 0.843359,-0.37207 0.694532,-0.17363 1.116211,-0.17363 -0.79375,-1.63711 -2.827734,-2.60449 -2.00918,-0.99219 -4.688086,-0.99219 -2.678906,0 -4.886523,1.53789 -2.182813,1.51308 -2.182813,4.14238 0,2.82774 1.959571,4.44004 1.066601,0.89297 2.554882,0.89297 z" />
      <path
         id="path88"
         style="font-style:normal;font-variant:normal;font-weight:normal;font-stretch:normal;font-size:50.8px;font-family:Niconne;-inkscape-font-specification:Niconne;fill:#ff9100;fill-opacity:1;stroke-width:0.264583"
         d="m 55.198697,146.52129 q -1.041797,-0.86817 -1.041797,-1.61231 0,-0.74414 0.595312,-1.11621 l 3.001367,-2.95175 q -2.629297,-2.20762 -2.629297,-5.2834 0,-3.10059 2.703711,-5.45703 2.728516,-2.35645 6.126758,-2.35645 0.768945,0 1.16582,0.0496 0.198438,-1.88516 1.835547,-3.54707 1.661914,-1.68672 4.142383,-1.68672 2.505273,0 2.505273,2.23242 0,0.96739 -0.570507,1.53789 -0.545704,0.54571 -1.314649,0.54571 -0.768945,0 -1.364258,-0.47129 -0.595312,-0.47129 -0.818554,-1.31465 -1.488282,0.39687 -2.406055,1.28984 -0.892969,0.86817 -0.892969,1.5627 1.984375,0.71933 3.274219,2.48047 1.289844,1.73633 1.289844,3.62148 0,3.24942 -2.604492,5.58106 -2.604493,2.33164 -5.878711,2.33164 -2.158008,0 -3.547071,-0.54571 -1.463476,1.21543 -1.463476,1.66192 0,0.69453 1.21543,0.76894 l 4.911328,0.19844 q 2.505273,0.0992 3.91914,0.81855 1.413867,0.74415 1.413867,2.0836 0,1.33945 -0.768945,2.35644 -0.768945,1.017 -2.108398,1.5875 -2.554883,1.09141 -6.449219,1.09141 -1.934766,0 -3.571875,-0.42168 -3.199805,-0.81855 -3.199805,-2.53008 0,-1.36426 2.00918,-2.28203 0.297656,-0.14883 0.520899,-0.22324 z m 6.225976,-16.02383 q -1.066602,1.0666 -1.537891,2.48047 -0.446484,1.38906 -0.446484,2.50527 0,1.09141 0.124023,1.86035 0.124024,0.74415 0.42168,1.51309 0.644922,1.63711 2.282031,1.63711 1.63711,0 2.654102,-1.14102 1.785937,-1.95957 1.785937,-5.63066 0,-1.41387 -0.74414,-2.85254 -0.744141,-1.46348 -2.108399,-1.46348 -1.364257,0 -2.430859,1.09141 z m -1.5875,20.04219 q 5.531445,0 5.531445,-1.93477 0,-1.66191 -8.532812,-1.66191 -0.620117,0 -1.066602,0.69453 -0.446484,0.69453 -0.446484,1.28984 0,0.94258 1.16582,1.26504 1.165821,0.34727 3.348633,0.34727 z" />
      <path
         id="path90"
         style="font-style:normal;font-variant:normal;font-weight:normal;font-stretch:normal;font-size:50.8px;font-family:Niconne;-inkscape-font-specification:Niconne;fill:#ff9100;fill-opacity:1;stroke-width:0.264583"
         d="m 72.958855,146.52129 q -1.041797,-0.86817 -1.041797,-1.61231 0,-0.74414 0.595313,-1.11621 l 3.001367,-2.95175 q -2.629297,-2.20762 -2.629297,-5.2834 0,-3.10059 2.703711,-5.45703 2.728515,-2.35645 6.126758,-2.35645 0.768945,0 1.16582,0.0496 0.198437,-1.88516 1.835547,-3.54707 1.661914,-1.68672 4.142383,-1.68672 2.505273,0 2.505273,2.23242 0,0.96739 -0.570508,1.53789 -0.545703,0.54571 -1.314648,0.54571 -0.768946,0 -1.364258,-0.47129 -0.595313,-0.47129 -0.818555,-1.31465 -1.488281,0.39687 -2.406054,1.28984 -0.892969,0.86817 -0.892969,1.5627 1.984375,0.71933 3.274219,2.48047 1.289843,1.73633 1.289843,3.62148 0,3.24942 -2.604492,5.58106 -2.604492,2.33164 -5.878711,2.33164 -2.158008,0 -3.54707,-0.54571 -1.463477,1.21543 -1.463477,1.66192 0,0.69453 1.21543,0.76894 l 4.911328,0.19844 q 2.505274,0.0992 3.919141,0.81855 1.413867,0.74415 1.413867,2.0836 0,1.33945 -0.768945,2.35644 -0.768946,1.017 -2.108399,1.5875 -2.554883,1.09141 -6.449218,1.09141 -1.934766,0 -3.571875,-0.42168 -3.199805,-0.81855 -3.199805,-2.53008 0,-1.36426 2.00918,-2.28203 0.297656,-0.14883 0.520898,-0.22324 z m 6.225977,-16.02383 q -1.066602,1.0666 -1.537891,2.48047 -0.446484,1.38906 -0.446484,2.50527 0,1.09141 0.124023,1.86035 0.124023,0.74415 0.42168,1.51309 0.644922,1.63711 2.282031,1.63711 1.637109,0 2.654101,-1.14102 1.785938,-1.95957 1.785938,-5.63066 0,-1.41387 -0.744141,-2.85254 -0.74414,-1.46348 -2.108398,-1.46348 -1.364258,0 -2.430859,1.09141 z m -1.5875,20.04219 q 5.531445,0 5.531445,-1.93477 0,-1.66191 -8.532813,-1.66191 -0.620117,0 -1.066601,0.69453 -0.446485,0.69453 -0.446485,1.28984 0,0.94258 1.165821,1.26504 1.16582,0.34727 3.348633,0.34727 z" />
      <path
         id="path92"
         style="font-style:normal;font-variant:normal;font-weight:normal;font-stretch:normal;font-size:50.8px;font-family:Niconne;-inkscape-font-specification:Niconne;fill:#ff9100;fill-opacity:1;stroke-width:0.264583"
         d="m 113.09284,141.73398 q -2.40606,1.0418 -4.91133,1.48829 -2.48047,0.47128 -4.71289,0.47128 -2.20762,0 -3.993556,-0.24804 -1.761132,-0.22324 -3.522265,-0.79375 -1.736328,-0.59531 -3.001367,-1.51309 -2.827735,-2.00918 -2.827735,-5.68027 0,-2.18281 1.016992,-4.06797 1.016993,-1.90996 2.654102,-3.1502 3.472656,-2.6789 7.590239,-2.6789 4.93613,0 7.34218,2.90215 1.19063,1.46347 1.19063,3.54707 0,2.08359 -1.98438,3.62148 -1.95957,1.51309 -4.14238,1.51309 -0.5209,0 -0.5209,-0.5209 0,-0.5457 0.4961,-0.76895 0.49609,-0.24804 1.19062,-0.44648 0.69453,-0.22324 1.38906,-0.5209 1.71153,-0.76894 1.71153,-2.48047 0,-1.73633 -1.5875,-2.60449 -1.5627,-0.89297 -5.45704,-0.89297 -3.894331,0 -6.027534,1.98438 -2.133203,1.95957 -2.133203,4.68808 0,3.59668 3.199805,5.10977 2.852539,1.36426 6.821292,1.36426 6.82129,0 11.03808,-3.89434 2.97656,-2.72852 2.97656,-6.8709 0,-2.48047 -1.76113,-4.81211 -0.76894,-1.0418 -1.71152,-2.05879 -0.94258,-1.01699 -1.88516,-2.03398 -0.94258,-1.01699 -1.71152,-2.03399 -1.76113,-2.23242 -1.76113,-4.16718 0,-1.93477 0.62011,-3.32383 0.64493,-1.41387 1.68672,-2.43086 1.0666,-1.0418 2.43086,-1.78594 2.75332,-1.53789 5.8291,-1.53789 2.67891,0 4.98574,1.28984 2.53008,1.38907 2.53008,4.24161 0,1.11621 -0.79375,1.95957 -0.79375,0.84336 -1.78593,0.84336 -0.99219,0 -1.63711,-0.57051 -0.62012,-0.57051 -0.62012,-1.26504 0,-0.71934 0.59531,-1.51309 0.62012,-0.81855 0.62012,-1.33945 0,-0.5457 -0.44649,-0.99219 -0.44648,-0.44648 -1.14101,-0.66972 -1.38906,-0.42168 -2.53008,-0.42168 -2.6293,0 -4.51445,1.56269 -1.88516,1.5627 -1.88516,4.34082 0,1.51309 1.88516,3.54707 0.84336,0.89297 1.83554,1.90996 1.017,0.99219 2.03399,2.13321 1.01699,1.14101 1.86035,2.35644 1.88516,2.67891 1.88516,5.55625 0,2.87735 -1.14102,5.20899 -1.14101,2.33164 -3.00137,3.86953 -1.83554,1.51308 -4.2664,2.57968 z" />
      <path
         id="path94"
         style="font-style:normal;font-variant:normal;font-weight:normal;font-stretch:normal;font-size:50.8px;font-family:Niconne;-inkscape-font-specification:Niconne;fill:#ff9100;fill-opacity:1;stroke-width:0.264583"
         d="m 128.12448,137.98848 q 0.14883,2.85254 3.84473,2.85254 1.36426,0 2.82773,-0.76895 1.48828,-0.79375 2.40606,-1.86035 l 1.0666,0.69453 q -2.05879,3.44785 -6.57324,4.2168 -0.99219,0.14882 -1.90996,0.14882 -2.67891,0 -4.46485,-1.76113 -1.78594,-1.78594 -1.78594,-4.34082 0,-2.55488 1.5627,-4.71289 1.56269,-2.18281 3.89434,-3.37344 2.35644,-1.19062 4.63847,-1.19062 2.28203,0 3.94395,1.0418 1.68672,1.04179 1.71152,2.80293 0.0496,1.76113 -1.01699,3.05097 -1.0666,1.26504 -2.70371,1.93477 -3.24942,1.31465 -6.37481,1.31465 z m -0.14883,-1.36426 q 2.75332,-0.0992 4.41524,-0.86817 1.68672,-0.79375 2.33164,-1.78593 0.66972,-1.01699 0.66972,-2.1084 0,-1.11621 -0.5705,-1.63711 -0.57051,-0.5457 -1.21543,-0.5457 -1.5875,0 -2.92696,1.11621 -1.31464,1.0914 -2.00918,2.6789 -0.69453,1.5627 -0.69453,3.1502 z" />
      <path
         id="path96"
         style="font-style:normal;font-variant:normal;font-weight:normal;font-stretch:normal;font-size:50.8px;font-family:Niconne;-inkscape-font-specification:Niconne;fill:#ff9100;fill-opacity:1;stroke-width:0.264583"
         d="m 145.6862,137.98848 q 0.14882,2.85254 3.84472,2.85254 1.36426,0 2.82774,-0.76895 1.48828,-0.79375 2.40605,-1.86035 l 1.0666,0.69453 q -2.05879,3.44785 -6.57324,4.2168 -0.99219,0.14882 -1.90996,0.14882 -2.67891,0 -4.46484,-1.76113 -1.78594,-1.78594 -1.78594,-4.34082 0,-2.55488 1.56269,-4.71289 1.5627,-2.18281 3.89434,-3.37344 2.35645,-1.19062 4.63848,-1.19062 2.28203,0 3.94394,1.0418 1.68672,1.04179 1.71152,2.80293 0.0496,1.76113 -1.01699,3.05097 -1.0666,1.26504 -2.70371,1.93477 -3.24941,1.31465 -6.3748,1.31465 z m -0.14883,-1.36426 q 2.75332,-0.0992 4.41523,-0.86817 1.68672,-0.79375 2.33164,-1.78593 0.66973,-1.01699 0.66973,-2.1084 0,-1.11621 -0.57051,-1.63711 -0.57051,-0.5457 -1.21543,-0.5457 -1.5875,0 -2.92695,1.11621 -1.31465,1.0914 -2.00918,2.6789 -0.69453,1.5627 -0.69453,3.1502 z" />
      <path
         id="path98"
         style="font-style:normal;font-variant:normal;font-weight:normal;font-stretch:normal;font-size:50.8px;font-family:Niconne;-inkscape-font-specification:Niconne;fill:#ff9100;fill-opacity:1;stroke-width:0.264583"
         d="m 170.71412,139.82402 q -2.60449,3.44785 -6.22598,3.44785 -2.43086,0 -4.11757,-1.76113 -1.68672,-1.78594 -1.68672,-4.53926 0,-3.69589 2.77812,-6.3748 2.77813,-2.70371 6.22598,-2.70371 1.78594,0 3.05098,0.71933 1.28984,0.69454 1.66191,1.90997 1.14102,-4.68809 3.27422,-10.86446 2.15801,-6.20117 3.96875,-9.74824 h 3.96875 q -2.30684,4.56406 -5.68028,15.47813 -3.37343,10.88925 -3.37343,13.61777 0,0.96738 0.39687,0.96738 0.99219,0 3.175,-3.15019 l 1.0666,0.99218 q -1.56269,2.77813 -3.34863,4.11758 -1.78594,1.33945 -2.87734,1.33945 -1.0666,0 -1.68672,-0.76894 -0.59531,-0.79375 -0.59531,-2.28203 0,-0.0496 0,-0.17363 0.0248,-0.14883 0.0248,-0.22325 z m -7.54062,-3.00136 q 0,3.99355 3.07578,3.99355 2.87734,0 4.73769,-3.84473 0.86817,-1.81074 0.86817,-2.92695 0,-4.01836 -3.05098,-4.01836 -2.03398,0 -3.84473,1.88516 -1.78593,1.86035 -1.78593,4.91133 z" />
    </g>
  </g>
</svg>
